<?xml version="1.0" encoding="iso-8859-1"?>
<!-- Generator: Adobe Illustrator 17.1.0, SVG Export Plug-In . SVG Version: 6.00 Build 0)  -->
<!DOCTYPE svg PUBLIC "-//W3C//DTD SVG 1.1//EN" "http://www.w3.org/Graphics/SVG/1.1/DTD/svg11.dtd">
<svg version="1.1" id="Capa_1" xmlns="http://www.w3.org/2000/svg" xmlns:xlink="http://www.w3.org/1999/xlink" x="0px" y="0px"
	 viewBox="0 0 490 490" style="enable-background:new 0 0 490 490;" xml:space="preserve">
<g>
	<path style="fill:#000100;" d="M361.568,57.938c-4.047,0-7.34,3.295-7.34,7.346v31.086c0,4.05,3.293,7.345,7.34,7.345
		c4.051,0,7.346-3.295,7.346-7.345V65.283C368.913,61.232,365.618,57.938,361.568,57.938z"/>
	<path style="fill:#000100;" d="M470.665,482.118c-0.4-5.17-4.51-51.904-25.42-100.151c-12.777-29.49-29.199-53.17-48.811-70.382
		c-19.123-16.8-41.373-27.468-66.17-31.73c40.904-28.215,65.242-74.369,65.242-123.979c0-10.379-1.047-20.691-3.113-30.661
		c1.09-1.312,1.684-2.949,1.684-4.667V43.225h28.299v48.502c-7.566,3.004-12.602,10.359-12.602,18.523
		c0,4.415,1.486,8.719,4.201,12.216c-10.373,11.71-10.373,35.272-10.373,44.245c0,6.971,0.545,13.743,1.619,20.128
		c0.594,3.55,3.639,6.127,7.242,6.127h34.475c3.59,0,6.633-2.566,7.236-6.103c1.1-6.452,1.658-13.232,1.658-20.152
		c0-8.975,0-32.538-10.373-44.245c2.721-3.5,4.211-7.804,4.211-12.216c0-8.153-5.037-15.506-12.609-18.516v-48.51h2.43
		c11.922,0,21.619-9.695,21.619-21.613C461.111,9.694,451.413,0,439.491,0H50.503C38.589,0,28.894,9.694,28.894,21.611
		c0,11.918,9.695,21.613,21.609,21.613h45.412v77.322c0,1.72,0.602,3.365,1.701,4.688c-2.078,10.129-3.131,20.435-3.131,30.641
		c0,49.61,24.344,95.763,65.256,123.976c-24.813,4.26-47.07,14.929-66.197,31.733c-19.623,17.227-36.043,40.908-48.803,70.384
		c-21.59,49.83-25.256,98.125-25.402,100.148c-0.158,2.01,0.547,4.028,1.94,5.548c1.394,1.484,3.355,2.336,5.381,2.336h436.674
		c2.043,0,4.004-0.853,5.385-2.343C470.097,486.165,470.806,484.148,470.665,482.118z M204.558,330.709l-39.236-36.887
		c5.338-0.772,10.855-1.233,16.436-1.373c16.172,7.522,33.383,12.048,51.195,13.467L204.558,330.709z M147.921,297.614l51.43,48.354
		c1.359,1.286,3.145,1.994,5.027,1.994c1.773,0,3.49-0.645,4.838-1.816l28.441-24.843v154.015H34.833
		c1.893-15.117,7.773-51.6,23.494-87.794C79.312,339.26,109.452,309.014,147.921,297.614z M50.503,14.686h388.988
		c3.822,0,6.932,3.106,6.932,6.926c0,3.821-3.109,6.931-6.932,6.931H50.503c-3.824,0-6.934-3.109-6.934-6.931
		C43.57,17.792,46.679,14.686,50.503,14.686z M429.704,115.506c-2.895,0-5.252-2.357-5.252-5.256c0-2.901,2.357-5.262,5.252-5.262
		c2.912,0,5.279,2.36,5.279,5.262C434.984,113.148,432.616,115.506,429.704,115.506z M429.716,130.189
		c7.373,0,11.434,12.971,11.434,36.522c0,3.912-0.203,7.801-0.605,11.572h-21.67c-0.387-3.73-0.584-7.618-0.584-11.572
		C418.29,143.159,422.349,130.189,429.716,130.189z M229.806,127.885c-13.889,27.362-44.77,61.457-113.246,72.177
		c-4.898-14.222-7.383-29.083-7.383-44.186c0-9.401,0.969-18.814,2.877-27.99H229.806z M110.605,113.201V43.225h268.787v69.977
		H110.605z M259.806,127.885h118.137c1.906,9.113,2.873,18.525,2.873,27.99c0,15.379-2.568,30.48-7.633,44.896
		C304.267,189.914,273.509,155.494,259.806,127.885z M208.607,177.105c19.313-15.956,30.275-33.761,36.225-46.534
		c5.521,12.027,15.631,28.863,33.291,44.387c22.885,20.116,52.92,33.482,89.285,39.735c-22.588,46.839-70.484,77.027-122.4,77.027
		c-52.246,0-100.281-30.459-122.752-77.711C157.099,208.074,186.146,195.661,208.607,177.105z M257.042,305.916
		c17.816-1.415,35.031-5.94,51.207-13.465c5.572,0.14,11.086,0.601,16.42,1.373l-39.234,36.885L257.042,305.916z M252.333,321.301
		l28.447,24.846c1.344,1.171,3.063,1.815,4.84,1.815c1.883,0,3.668-0.709,5.02-1.992l51.43-48.352
		c38.465,11.402,68.6,41.647,89.582,89.906c15.682,36.077,21.605,72.635,23.52,87.793H252.333V321.301z"/>
</g>
<g>
</g>
<g>
</g>
<g>
</g>
<g>
</g>
<g>
</g>
<g>
</g>
<g>
</g>
<g>
</g>
<g>
</g>
<g>
</g>
<g>
</g>
<g>
</g>
<g>
</g>
<g>
</g>
<g>
</g>
</svg>
